<svg xmlns="http://www.w3.org/2000/svg" xmlns:xlink="http://www.w3.org/1999/xlink" preserveAspectRatio="xMidYMid" width="20" height="19" viewBox="0 0 20 19">
  <defs>
    <style>

      .cls-2 {
        fill: #e6b714;
      }
    </style>
  </defs>
  <path d="M10.000,0.000 C10.000,0.000 13.296,5.971 13.296,5.971 C13.296,5.971 19.999,7.257 19.999,7.257 C19.999,7.257 15.333,12.234 15.333,12.234 C15.333,12.234 16.180,19.000 16.180,19.000 C16.180,19.000 10.000,16.104 10.000,16.104 C10.000,16.104 3.820,19.000 3.820,19.000 C3.820,19.000 4.667,12.234 4.667,12.234 C4.667,12.234 0.001,7.257 0.001,7.257 C0.001,7.257 6.704,5.971 6.704,5.971 C6.704,5.971 10.000,0.000 10.000,0.000 " id="path-1" class="cls-2" fill-rule="evenodd"/>
</svg>
